<svg xmlns="http://www.w3.org/2000/svg" viewBox="0 0 1934.879 247.538"><defs><style>.cls-1{fill:#5a1986;fill-rule:evenodd;}</style></defs><g id="Hannah"><g id="Shape_11" data-name="Shape 11"><path class="cls-1" d="M1466.586,75.038c-46.3,0-8.908,82.821-20.64,83.287-15.559.619-23.021-83.287-65.761-83.287-31.339,0-44.131,159.862,4.8,159.855,39.336-.007,10.941-52.34,22.56-52.325,13.94.017,20.984,52.332,58.081,52.332C1508.831,234.9,1506.767,75.038,1466.586,75.038Z" transform="translate(-17.763 -35.317)"/></g><g id="Shape_12" data-name="Shape 12"><path class="cls-1" d="M1625.229,75.038c-41.125,0-5.6,84.246-20.16,84.007-8.427-.137-24.014-84.007-65.281-84.007-27.428,0-48.2,159.862,8.64,159.862,39.439,0,6.862-52.347,19.2-52.332,15.487.017,22.835,52.332,55.921,52.332C1666.537,234.9,1672.225,75.038,1625.229,75.038Z" transform="translate(-17.763 -35.317)"/></g><g id="Shape_14" data-name="Shape 14"><path class="cls-1" d="M1920.674,75.038c-37.178,0-20.943,59.513-29.76,63.124a22.155,22.155,0,0,1-17.04,0c-10.609-4.353,7.059-63.125-35.521-63.125-35.639,0-42.34,159.862,8.16,159.862,34.121,0,17.8-47.562,26.881-52.332,4.267-2.243,12.052-2.506,17.28,0,7.591,3.638-5.157,52.332,29.28,52.332C1962.662,234.9,1964.16,75.038,1920.674,75.038Z" transform="translate(-17.763 -35.317)"/></g><g id="Shape_9" data-name="Shape 9"><path class="cls-1" d="M1168.981,75.038c-34.9,0-19.043,47.476-24.289,60.229-2.829,6.877-22.2,7.633-24.672,2.9-6.944-13.317,3.638-63.125-34.561-63.125-39.507,0-37.919,159.862,12.481,159.862,25.919,0,17.948-31.514,21.84-46.812,2.2-8.634,26.838-6.211,26.881,0,.075,11.137,1.164,46.8,28.32,46.805C1208.925,234.9,1219.866,75.038,1168.981,75.038Z" transform="translate(-17.763 -35.317)"/></g><g id="Shape_15" data-name="Shape 15"><path class="cls-1" d="M1273.383,75.038c-46.024,0-85.482,159.862-32.4,159.862,29.852,0,25.532-47.042,29.281-49.692,3.709-2.623,9.258-2.383,13.68-.24,3.179,1.54-2.464,49.919,35.761,49.925C1368.568,234.9,1319.215,75.038,1273.383,75.038Zm8.16,63.125c-2.987.668-10.565.873-13.68,0-4.608-1.29.124-18.138,7.977-17.8C1281.213,120.589,1288.058,136.707,1281.543,138.163Z" transform="translate(-17.763 -35.317)"/></g><g id="Shape_15_copy" data-name="Shape 15 copy"><path class="cls-1" d="M1725.551,75.038c-38.753,0-82.516,159.855-30.481,159.855,39.292,0,27.267-42.957,31.921-48.725a8.708,8.708,0,0,1,12.48-.96c5.423,5.043-6.28,49.678,38.161,49.685C1829.883,234.9,1775.94,75.038,1725.551,75.038Zm12.72,63.125c-2.987.668-10.565.873-13.68,0-4.607-1.29-.357-17.337,7.489-17.8C1738.969,119.951,1744.787,136.707,1738.271,138.163Z" transform="translate(-17.763 -35.317)"/></g></g><g id="HappyHannahLogo_Image" data-name="HappyHannahLogo Image"><g id="Purple"><path class="cls-1" d="M991.2,143.7c.708-2.824,7.669-25.394,10.556-50.926,2.875-25.435.778-53.518-8.345-57.061-8.838-2.782-29.276,9.5-43.01,24.108-14.592,15.523-25.616,29.219-28.03,33.309-7.218-3.782-23.061-6.847-35.449-6.847s-28.167,3.16-35.449,6.847c-2.414-4.09-13.438-17.786-28.031-33.309-13.733-14.609-34.171-26.89-43.009-24.108-9.123,3.543-11.22,31.626-8.345,57.061,2.887,25.532,9.848,48.1,10.556,50.926-2.55,2.17-17.128,25.173-17.282,53.3,1.237,21.676,13.358,38.632,33.188,53.471,20.778,15.547,62.694,32.381,88.372,32.381s67.594-16.834,88.372-32.381c19.83-14.839,31.951-31.795,33.188-53.471C1008.326,168.873,993.748,145.87,991.2,143.7Zm-120.54,37.232c7.5-6.381,25.325-6.454,32.809,0,3.337,2.876,5.524,9.341,3.424,14.407-2.861,6.905-11.7,11.667-19.971,11.626-8.154-.04-16.9-4.774-19.686-11.626C865.348,190.7,867.3,183.785,870.658,180.932ZM837.376,148.75a11.738,11.738,0,1,1,11.738,11.738A11.737,11.737,0,0,1,837.376,148.75Zm86.847,79.87a21.1,21.1,0,0,1-9.884,6.246c-2.754,14.986-14.347,26.235-28.23,26.235-14.049,0-25.752-11.518-28.325-26.772a20.863,20.863,0,0,1-8.31-5.709,19.479,19.479,0,0,1-4.279-7.812l7.236-1.683-.008-.035a12.663,12.663,0,0,0,2.841,4.865c2.871,3.108,7.057,4.666,12.423,4.621,5.8-.044,10.2-1.622,13.068-4.689a10.961,10.961,0,0,0,2.648-4.643l-.008.045H890.3l-.009-.045a10.961,10.961,0,0,0,2.648,4.643c2.866,3.067,7.263,4.645,13.068,4.689,5.367.045,9.552-1.513,12.423-4.621a12.647,12.647,0,0,0,2.841-4.865l-.008.035,7.237,1.683A19.488,19.488,0,0,1,924.223,228.62Zm.5-68.132a11.738,11.738,0,1,1,11.738-11.738A11.737,11.737,0,0,1,924.726,160.488ZM856.035,148.58A7.037,7.037,0,1,0,849,155.617,7.036,7.036,0,0,0,856.035,148.58Zm68.782-7.036a7.037,7.037,0,1,0,7.037,7.036A7.036,7.036,0,0,0,924.817,141.544Z" transform="translate(-17.763 -35.317)"/></g></g><g id="Happy"><g id="Shape_1" data-name="Shape 1"><path class="cls-1" d="M124.487,75.038c-31.572,0-17.528,55.575-23.521,61.445-4.831,4.733-14.01,5.44-22.08,2.4-7.618-2.868,5.087-63.845-33.12-63.845-38.265,0-37.928,158.417,4.8,158.654,35.072.195,25.142-42.268,30.72-48,3.569-3.67,9.439-5,18.241-1.44,9.645,3.907-6.554,51.5,30.48,50.645C165.6,234.072,173.415,75.038,124.487,75.038Z" transform="translate(-17.763 -35.317)"/></g><g id="Shape_3" data-name="Shape 3"><path class="cls-1" d="M226.969,75.038c-50.385,0-75.627,160.337-35.281,159.855,33.906-.406,31.745-42.3,33.6-48,1.921-5.906,10.651-5.909,13.44-1.68,5.777,8.76.143,51.646,38.161,49.685C317.155,232.815,278.549,75.038,226.969,75.038Zm12,60.245c-3.2,4.214-13.744,4.247-18.24,1.2-3.929-2.662,1.241-16.777,7.838-17.246S241.622,131.794,238.969,135.283Z" transform="translate(-17.763 -35.317)"/></g><g id="Shape_7" data-name="Shape 7"><path class="cls-1" d="M567.055,120.162c-.955-60.288-96.656-45.124-112.322-38.4s-26.82,153.135,18.72,153.135c46.482,0,25.6-52.012,31.441-52.325C527.1,181.376,567.81,167.879,567.055,120.162Zm-66.241,19.2c-6.834,0-5.65-18.7-1.92-19.681,8.556-2.257,23.814-.98,24,7.2C523.222,141.28,511.512,139.362,500.814,139.363Z" transform="translate(-17.763 -35.317)"/></g><g id="Shape_5" data-name="Shape 5"><path class="cls-1" d="M429.292,123.042c-3.152-66.914-102.135-48-113.042-37.924C300.735,99.459,293.092,234.9,337.851,234.9c37.152,0,24.826-52.427,26.64-52.332C394.251,184.121,431.012,159.533,429.292,123.042Zm-67.441,16.081c-3.1,0-4.319-16.382-1.68-18.361s24.7-5.206,24.961,6.72C385.409,140.442,369.976,139.123,361.851,139.123Z" transform="translate(-17.763 -35.317)"/></g><g id="Shape_8" data-name="Shape 8"><path class="cls-1" d="M713.937,77.438c-41.27-18.146-51.529,57.756-62.641,57.845-10.975.088-27.179-75.841-61.921-56.165-38.776,21.961,29.544,93.832,36.481,101.289,5.141,5.527-10.9,54.493,30.48,54.493,32.642,0,20.143-51.5,24.241-54.493C688.065,174.933,747.967,92.4,713.937,77.438Z" transform="translate(-17.763 -35.317)"/></g></g></svg>